<?xml version="1.0" encoding="utf-8"?>
<!-- Generator: Adobe Illustrator 25.4.1, SVG Export Plug-In . SVG Version: 6.00 Build 0)  -->
<svg version="1.1" id="Layer_1" xmlns="http://www.w3.org/2000/svg" xmlns:xlink="http://www.w3.org/1999/xlink" x="0px" y="0px"
	 viewBox="0 0 50 44" style="enable-background:new 0 0 50 44;" xml:space="preserve">
<style type="text/css">
	.st0{fill:#8549AA;}
</style>
<g>
	<path class="st0" d="M49.4,31.6C49.4,31.6,49.4,31.6,49.4,31.6l-2.1-13c-0.7-4.3-3.8-7.8-8-9.1V7.9c0-1.1-0.9-2-2-2h-0.9
		c-1.1,0-2,0.9-2,2v1.3c0,0-0.1,0-0.1,0c-0.4,0.1-0.7,0.2-0.9,0.5c-0.2,0.3-0.4,0.6-0.4,1c0,0.1,0,0.1-0.1,0.2
		c-0.1,0.1-0.1,0.1-0.2,0.1H17.2c-0.2,0-0.3-0.2-0.3-0.3c0-0.3-0.2-0.7-0.4-0.9c-0.2-0.3-0.6-0.4-0.9-0.5c0,0,0,0-0.1,0
		c-0.1,0-0.2,0-0.3,0V7.9c0-1.1-0.9-2-2-2h-0.9c-1.1,0-2,0.9-2,2v1.7c-4,1.3-7,4.8-7.7,9l-2.1,13c0,0,0,0,0,0
		c-0.3,1.7,0.2,3.4,1.2,4.6c1.1,1.3,2.6,1.9,4.4,1.9c1.7,0,3.5-0.7,4.9-1.9c1.4-1.2,2.4-2.8,2.6-4.5c0,0,0,0,0,0l0.9-5.5
		c0.3,0.1,0.6,0.2,1,0.2c1.4,0,2.5-1.1,2.6-2.5h12.8c0.1,1.4,1.2,2.5,2.6,2.5c0.7,0,1.3-0.3,1.8-0.7c0,0.1,0.1,0.2,0.1,0.3l0.9,5.7
		c0,0,0,0,0,0c0.6,3.5,3.9,6.4,7.5,6.4c3.3,0,5.7-2.4,5.7-5.6C49.5,32.2,49.5,31.9,49.4,31.6z M35.7,7.9c0-0.4,0.3-0.8,0.8-0.8h0.9
		c0.4,0,0.8,0.3,0.8,0.8v1.6h-2.4V7.9z M11.6,7.9c0-0.4,0.3-0.8,0.8-0.8h0.9c0.4,0,0.8,0.3,0.8,0.8v1.6h-2.4V7.9z M15.6,25.1
		c-0.4,0-0.7-0.1-0.9-0.4c-0.3-0.3-0.4-0.6-0.4-1c0-0.7,0.6-1.3,1.3-1.3c0.6,0,1.1,0.4,1.3,1c0,0.1,0,0.2,0,0.3
		C16.9,24.5,16.3,25.1,15.6,25.1z M33.5,25.1c-0.7,0-1.3-0.6-1.3-1.3c0-0.1,0-0.2,0.1-0.4c0.2-0.6,0.7-1,1.3-1
		c0.7,0,1.3,0.6,1.3,1.3c0,0.2,0,0.3-0.1,0.5C34.6,24.8,34.1,25.1,33.5,25.1z M43.8,36.9c-3,0-5.8-2.4-6.3-5.3c0,0,0,0,0,0l-0.9-5.7
		c-0.1-0.5-0.3-1-0.6-1.5c0,0,0,0,0,0c0-0.2,0.1-0.3,0.1-0.5c0-1.4-1.2-2.6-2.6-2.6c-0.1,0-0.3,0-0.4,0c0,0-0.1,0-0.1,0
		c-0.1,0-0.2,0-0.3,0.1c0,0-0.1,0-0.1,0.1c-0.1,0-0.1,0.1-0.2,0.1c-0.1,0-0.1,0.1-0.1,0.1c-0.1,0-0.1,0.1-0.2,0.1
		c0,0-0.1,0.1-0.1,0.1c-0.1,0-0.1,0.1-0.2,0.1c0,0-0.1,0.1-0.1,0.1c0,0-0.1,0.1-0.1,0.1c-0.1,0.1-0.1,0.2-0.2,0.3
		c0,0.1-0.1,0.1-0.1,0.2H17.9c-0.1-0.1-0.1-0.2-0.2-0.3c0,0,0,0,0,0c-0.1-0.1-0.2-0.2-0.2-0.3c0,0-0.1-0.1-0.1-0.1
		c-0.1-0.1-0.1-0.1-0.2-0.2c0,0-0.1-0.1-0.1-0.1c-0.1,0-0.1-0.1-0.2-0.1c0,0-0.1,0-0.1-0.1c-0.1,0-0.1-0.1-0.2-0.1
		c0,0-0.1,0-0.1-0.1c-0.1,0-0.2,0-0.3-0.1c0,0-0.1,0-0.1,0c-0.1,0-0.3,0-0.4,0c-1.4,0-2.6,1.2-2.6,2.6c0,0.2,0,0.3,0,0.5
		c0,0,0,0.1,0,0.1c0,0.1,0.1,0.2,0.1,0.3c0,0.1,0,0.1,0.1,0.2c0,0.1,0.1,0.2,0.2,0.3c0,0,0.1,0.1,0.1,0.1c0,0,0,0,0,0
		c0,0.2-0.1,0.3-0.1,0.5l-0.9,5.7c0,0,0,0,0,0c-0.2,1.4-1,2.7-2.2,3.7c-1.2,1-2.6,1.6-4.1,1.6c-1.4,0-2.6-0.5-3.5-1.5
		c-0.8-1-1.2-2.3-0.9-3.6c0,0,0,0,0,0l2.1-13c0.6-3.8,3.3-6.9,6.9-8c0.1,0,0.1,0,0.2,0h3.7c0.1,0,0.2,0,0.2,0c0,0,0,0,0.1,0
		c0,0,0.1-0.1,0.1-0.1c0,0,0,0,0.1,0c0,0,0.1-0.1,0.1-0.1c0,0,0,0,0,0c0,0,0,0,0,0c0.1,0,0.1,0,0.2,0c0,0,0,0,0,0
		c0.1,0,0.1,0,0.1,0.1c0,0.1,0.1,0.1,0.1,0.2c0.1,0.8,0.7,1.5,1.5,1.5h15.7c0.4,0,0.8-0.2,1.1-0.4c0.3-0.3,0.5-0.7,0.5-1.1
		c0-0.1,0-0.1,0.1-0.2c0,0,0.1,0,0.1-0.1c0,0.1,0.1,0.1,0.1,0.2c0,0,0,0,0,0c0,0,0.1,0.1,0.1,0.1c0,0,0,0,0.1,0c0.1,0,0.1,0,0.2,0
		h3.7c0.1,0,0.1,0,0.2,0c0,0,0,0,0,0c0,0,0,0,0,0c3.7,1.1,6.4,4.2,7,8.1l2.1,13c0,0,0,0,0,0c0,0.3,0.1,0.5,0.1,0.8
		C48.3,35.1,46.4,36.9,43.8,36.9z"/>
	<path class="st0" d="M10.1,14c-2.6,0-4.6,2.1-4.6,4.6s2.1,4.6,4.6,4.6c2.6,0,4.6-2.1,4.6-4.6S12.7,14,10.1,14z M10.1,22
		c-1.8,0-3.3-1.4-3.4-3.2c0.1,0.2,0.3,0.4,0.6,0.4h1.8c0.3,0,0.6-0.3,0.6-0.6s-0.3-0.6-0.6-0.6H7.3c-0.2,0-0.4,0.1-0.5,0.3
		c0.2-1.5,1.4-2.7,2.9-2.9c-0.1,0.1-0.2,0.3-0.2,0.4v1.8c0,0.3,0.3,0.6,0.6,0.6s0.6-0.3,0.6-0.6v-1.8c0-0.2-0.1-0.3-0.2-0.4
		c1.5,0.2,2.7,1.4,2.9,2.9c-0.1-0.2-0.3-0.3-0.5-0.3h-1.8c-0.3,0-0.6,0.3-0.6,0.6s0.3,0.6,0.6,0.6h1.8c0.3,0,0.5-0.2,0.6-0.4
		C13.4,20.5,12,22,10.1,22z"/>
	<path class="st0" d="M10.1,18.9c-0.3,0-0.6,0.3-0.6,0.6v1.8c0,0.3,0.3,0.6,0.6,0.6s0.6-0.3,0.6-0.6v-1.8
		C10.8,19.1,10.5,18.9,10.1,18.9z"/>
	<path class="st0" d="M39,13.9c-2.6,0-4.6,2.1-4.6,4.6c0,2.6,2.1,4.6,4.6,4.6c2.6,0,4.6-2.1,4.6-4.6C43.7,15.9,41.6,13.9,39,13.9z
		 M39,21.9c-1.9,0-3.4-1.5-3.4-3.4s1.5-3.4,3.4-3.4c1.9,0,3.4,1.5,3.4,3.4S40.9,21.9,39,21.9z"/>
	<path class="st0" d="M39,15.5L39,15.5c-0.4,0-0.6,0.3-0.6,0.6c0,0.3,0.3,0.6,0.6,0.6s0.6-0.3,0.6-0.6C39.7,15.8,39.4,15.5,39,15.5z
		"/>
	<path class="st0" d="M39,20.2L39,20.2c-0.4,0-0.6,0.3-0.6,0.6s0.3,0.6,0.6,0.6s0.6-0.3,0.6-0.6S39.4,20.2,39,20.2z"/>
	<path class="st0" d="M40.8,18.5c0,0.3,0.3,0.6,0.6,0.6s0.6-0.3,0.6-0.6v0c0-0.3-0.3-0.6-0.6-0.6S40.8,18.2,40.8,18.5z"/>
	<path class="st0" d="M36.7,17.9c-0.3,0-0.6,0.3-0.6,0.6s0.3,0.6,0.6,0.6s0.6-0.3,0.6-0.6v0C37.3,18.1,37,17.9,36.7,17.9z"/>
	<path class="st0" d="M25,12.6c-1.1,0-2,0.9-2,2c0,1.1,0.9,2,2,2c1.1,0,2-0.9,2-2C27.1,13.5,26.2,12.6,25,12.6z M25,15.4
		c-0.4,0-0.8-0.3-0.8-0.8c0-0.4,0.3-0.8,0.8-0.8c0.4,0,0.8,0.3,0.8,0.8C25.8,15,25.5,15.4,25,15.4z"/>
	<path class="st0" d="M19.3,19.4c-0.3,0-0.6,0.3-0.6,0.6c0,0.3,0.3,0.6,0.6,0.6c0.3,0,0.6-0.3,0.6-0.6C20,19.7,19.7,19.4,19.3,19.4z
		"/>
	<path class="st0" d="M28.2,19.4c-0.3,0-0.6,0.3-0.6,0.6c0,0.3,0.3,0.6,0.6,0.6c0.3,0,0.6-0.3,0.6-0.6
		C28.8,19.7,28.6,19.4,28.2,19.4z"/>
	<path class="st0" d="M30.4,19.4c-0.3,0-0.6,0.3-0.6,0.6c0,0.3,0.3,0.6,0.6,0.6c0.3,0,0.6-0.3,0.6-0.6C31,19.7,30.8,19.4,30.4,19.4z
		"/>
	<path class="st0" d="M26,19.4c-0.3,0-0.6,0.3-0.6,0.6c0,0.3,0.3,0.6,0.6,0.6c0.3,0,0.6-0.3,0.6-0.6C26.6,19.7,26.3,19.4,26,19.4z"
		/>
	<path class="st0" d="M23.8,19.4c-0.3,0-0.6,0.3-0.6,0.6c0,0.3,0.3,0.6,0.6,0.6c0.3,0,0.6-0.3,0.6-0.6
		C24.4,19.7,24.1,19.4,23.8,19.4z"/>
	<path class="st0" d="M21.6,19.4c-0.3,0-0.6,0.3-0.6,0.6c0,0.3,0.3,0.6,0.6,0.6c0.3,0,0.6-0.3,0.6-0.6
		C22.2,19.7,21.9,19.4,21.6,19.4z"/>
	<path class="st0" d="M24,17.2c-0.3,0-0.6,0.3-0.6,0.6c0,0.3,0.3,0.6,0.6,0.6c0.3,0,0.6-0.3,0.6-0.6C24.6,17.5,24.4,17.2,24,17.2z"
		/>
	<path class="st0" d="M30.6,17.2c-0.3,0-0.6,0.3-0.6,0.6c0,0.3,0.3,0.6,0.6,0.6c0.3,0,0.6-0.3,0.6-0.6C31.3,17.5,31,17.2,30.6,17.2z
		"/>
	<path class="st0" d="M28.4,17.2c-0.3,0-0.6,0.3-0.6,0.6c0,0.3,0.3,0.6,0.6,0.6c0.3,0,0.6-0.3,0.6-0.6
		C29.1,17.5,28.8,17.2,28.4,17.2z"/>
	<path class="st0" d="M21.8,17.2c-0.3,0-0.6,0.3-0.6,0.6c0,0.3,0.3,0.6,0.6,0.6c0.3,0,0.6-0.3,0.6-0.6
		C22.4,17.5,22.1,17.2,21.8,17.2z"/>
	<path class="st0" d="M19.6,17.2c-0.3,0-0.6,0.3-0.6,0.6c0,0.3,0.3,0.6,0.6,0.6c0.3,0,0.6-0.3,0.6-0.6
		C20.2,17.5,19.9,17.2,19.6,17.2z"/>
	<path class="st0" d="M26.2,17.2c-0.3,0-0.6,0.3-0.6,0.6c0,0.3,0.3,0.6,0.6,0.6c0.3,0,0.6-0.3,0.6-0.6
		C26.8,17.5,26.6,17.2,26.2,17.2z"/>
	<path class="st0" d="M16.6,12.7c-0.3,0-0.6,0.3-0.6,0.6v2.8c0,0.3,0.3,0.6,0.6,0.6s0.6-0.3,0.6-0.6v-2.8C17.3,13,17,12.7,16.6,12.7
		z"/>
	<path class="st0" d="M32.5,12.7c-0.3,0-0.6,0.3-0.6,0.6v2.8c0,0.3,0.3,0.6,0.6,0.6c0.3,0,0.6-0.3,0.6-0.6v-2.8
		C33.2,13,32.9,12.7,32.5,12.7z"/>
</g>
</svg>
